<?xml version="1.0" encoding="UTF-8"?>
<svg xmlns="http://www.w3.org/2000/svg" version="1.1" viewBox="0 0 51.27 51.27">
  <defs>
    <style>
      .cls-1 {
        fill: #4e40b1;
      }

      .cls-1, .cls-2, .cls-3, .cls-4, .cls-5, .cls-6, .cls-7 {
        stroke-width: 0px;
      }

      .cls-8 {
        isolation: isolate;
      }

      .cls-2, .cls-5 {
        fill: #5b38b6;
      }

      .cls-3 {
        fill: #381d84;
      }

      .cls-4 {
        fill: #0c116d;
      }

      .cls-5 {
        mix-blend-mode: multiply;
      }

      .cls-6 {
        fill: #0b075c;
      }

      .cls-7 {
        fill: #8d65d7;
      }
    </style>
  </defs>
  <g class="cls-8">
    <g id="Camada_1" data-name="Camada 1">
      <g>
        <path class="cls-2" d="M50.4,26.47c-.78,5.58.66,9.48.66,10.65s-.78,3.03-.84,8.55c-.06,5.52-4.38,2.64-9.12,4.14-4.74,1.5-7.62,1.2-15.41-1.4-7.79-2.59-7.75,2.9-15.67,2.36s-8.4-1.92-8.94-4.8c-.27-1.45-.29-4.03-.32-6.48-.04-2.41-.1-4.72-.46-5.7-.33-.9-.26-3.85-.02-7.2.27-3.98.77-8.52,1.1-10.86.6-4.32-.06-8.1.54-12.36C2.43-.24,16.43.42,20.67.7c.68.05,1.31.35,1.8.83,0,0,0,0,.01.01.42.41,1.11.95,2.18,1.47,2.23,1.08,21.72-.23,24.17,1.38,1.74,1.14,2.62,5.62,2.28,13.09-.17,3.72-.46,7.14-.72,8.99Z"/>
        <path class="cls-5" d="M51.06,37.12c0,1.16-.78,3.03-.84,8.55-.06,5.52-4.38,2.64-9.12,4.14-4.74,1.5-7.62,1.2-15.41-1.4-7.79-2.59-7.75,2.9-15.67,2.36s-8.4-1.92-8.94-4.8c-.27-1.45-.29-4.03-.32-6.48,3.56.9,8.75,2.01,13.7,2.31.83.06,1.65.09,2.46.09,1.72,0,3.38-.12,4.88-.42,1.48-.29,2.8-.75,3.89-1.43,6.93-4.33,18.27-11.32,25.43-22.56-.17,3.72-.46,7.14-.72,8.99-.78,5.58.66,9.48.66,10.65Z"/>
        <path class="cls-7" d="M22.49,1.54c-6.2,3.41-12.61,7.67-13.45,11.02-.98,3.93-5.32,9.82-8.76,14.03.27-3.98.77-8.52,1.1-10.86.6-4.32-.06-8.1.54-12.36C2.52-.89,21.88.79,21.88.79c0,0,.15.31.61.75Z"/>
        <g>
          <path class="cls-3" d="M44.71,15.44c0,.22-.01.44-.04.65-.32,3.54-3.3,6.31-6.92,6.31-3.85,0-6.96-3.12-6.96-6.96,0-1.46.45-2.82,1.23-3.94,1.25-1.82,3.35-3.02,5.73-3.02,3.84,0,6.96,3.12,6.96,6.96Z"/>
          <path class="cls-4" d="M44.71,15.44c0,.22-.01.44-.04.65-3.53-2.43-9.28-3.89-12.65-4.59,1.25-1.82,3.35-3.02,5.73-3.02,3.84,0,6.96,3.12,6.96,6.96Z"/>
        </g>
        <g>
          <path class="cls-3" d="M26.57,16.33c.12.03.23.06.34.1,1.84.61,2.94,2.55,2.49,4.47-.48,2.05-2.53,3.31-4.58,2.83-.78-.18-1.44-.59-1.94-1.15-.81-.89-1.19-2.16-.89-3.43.48-2.04,2.53-3.31,4.58-2.83Z"/>
          <path class="cls-4" d="M26.57,16.33c.12.03.23.06.34.1-1.74,1.57-3.24,4.45-4.03,6.15-.81-.89-1.19-2.16-.89-3.43.48-2.04,2.53-3.31,4.58-2.83Z"/>
        </g>
        <g>
          <path class="cls-3" d="M16.57,37.16c.11-.05.22-.09.33-.12,1.85-.61,3.88.29,4.67,2.1.84,1.93-.06,4.17-1.98,5-.73.32-1.51.39-2.24.24-1.18-.23-2.24-1.03-2.76-2.22-.83-1.93.06-4.17,1.98-5Z"/>
          <path class="cls-4" d="M16.57,37.16c.11-.05.22-.09.33-.12-.45,2.3.06,5.5.44,7.34-1.18-.23-2.24-1.03-2.76-2.22-.83-1.93.06-4.17,1.98-5Z"/>
        </g>
        <ellipse class="cls-1" cx="42.66" cy="37.12" rx="2.2" ry="1.1" transform="translate(-12.23 50.7) rotate(-54.92)"/>
        <ellipse class="cls-1" cx="43.13" cy="39.95" rx="1.46" ry=".91" transform="translate(-14.35 52.28) rotate(-54.92)"/>
        <circle class="cls-6" cx="32.76" cy="46.45" r="1.97"/>
        <circle class="cls-6" cx="35.08" cy="40.65" r="2.67"/>
      </g>
    </g>
  </g>
</svg>