<?xml version="1.0" encoding="UTF-8"?>
<svg xmlns="http://www.w3.org/2000/svg" version="1.1" viewBox="0 0 51.27 51.27">
  <defs>
    <style>
      .cls-1 {
        fill: #1686c4;
      }

      .cls-1, .cls-2, .cls-3, .cls-4, .cls-5, .cls-6, .cls-7, .cls-8, .cls-9 {
        stroke-width: 0px;
      }

      .cls-10 {
        isolation: isolate;
      }

      .cls-2, .cls-4 {
        mix-blend-mode: multiply;
      }

      .cls-2, .cls-8 {
        fill: #70a0e0;
      }

      .cls-3 {
        fill: #13719b;
      }

      .cls-4 {
        opacity: .46;
      }

      .cls-4, .cls-9 {
        fill: #3aaeff;
      }

      .cls-5 {
        fill: #a7d4fe;
      }

      .cls-6 {
        fill: #43337c;
      }

      .cls-7 {
        fill: #3ab5d6;
      }
    </style>
  </defs>
  <g class="cls-10">
    <g id="Camada_1" data-name="Camada 1">
      <g>
        <g>
          <path class="cls-9" d="M48.11,15.54v35.68H3.15V15.54C3.15,6.95,10.11-.01,18.7-.01h13.86c8.59,0,15.55,6.97,15.55,15.55Z"/>
          <circle class="cls-6" cx="25.64" cy="16.18" r="5.74"/>
          <g>
            <path class="cls-8" d="M29.41,16.18c0,2.08-1.69,3.78-3.78,3.78-1.25,0-2.35-.61-3.03-1.54-.46-.62-.73-1.4-.73-2.24,0-2.08,1.68-3.77,3.77-3.77,1.84,0,3.37,1.31,3.71,3.04.04.23.07.48.07.73Z"/>
            <path class="cls-5" d="M22.65,15.77s.56-2.59,2.2-2.17-1.97,2.25-2.2,2.17Z"/>
            <path class="cls-2" d="M29.34,15.45c.04.23.07.48.07.73,0,2.08-1.69,3.78-3.78,3.78-1.25,0-2.35-.61-3.03-1.54,1.48-.45,4.83-1.58,6.74-2.96Z"/>
          </g>
          <ellipse class="cls-6" cx="25.64" cy="36.27" rx="8.31" ry="8.31"/>
          <g>
            <path class="cls-8" d="M31.1,36.27c0,3.02-2.45,5.47-5.47,5.47-1.81,0-3.4-.88-4.39-2.23-.67-.9-1.06-2.03-1.06-3.24,0-3.02,2.44-5.45,5.46-5.45,2.66,0,4.88,1.89,5.37,4.4.06.33.1.69.1,1.05Z"/>
            <path class="cls-5" d="M21.31,35.68s.82-3.75,3.19-3.14-2.85,3.26-3.19,3.14Z"/>
            <path class="cls-2" d="M31,35.22c.06.33.1.69.1,1.05,0,3.02-2.45,5.47-5.47,5.47-1.81,0-3.4-.88-4.39-2.23,2.14-.66,6.99-2.29,9.76-4.29Z"/>
          </g>
          <path class="cls-1" d="M46.76,25.34c0,.4-.23.72-.53.72H4.99c-.29,0-.53-.32-.53-.72s.23-.72.53-.72h41.25c.29,0,.53.32.53.72Z"/>
          <rect class="cls-1" x="3" y="50.05" width="45.27" height="1.23" rx=".51" ry=".51"/>
          <rect class="cls-1" x="3.86" y="48.13" width="43.55" height="1.23" rx=".51" ry=".51"/>
          <rect class="cls-6" x="25.44" y="3.68" width=".38" height="7.42" rx=".19" ry=".19"/>
          <circle class="cls-6" cx="25.64" cy="3.11" r=".84"/>
          <g>
            <circle class="cls-3" cx="41.15" cy="42.95" r="3.21"/>
            <circle class="cls-7" cx="41.15" cy="42.95" r="2.96"/>
            <g>
              <path class="cls-3" d="M39.75,41.1v3.7c-.1-.08-.2-.16-.28-.25v-3.19c.09-.09.18-.18.28-.25Z"/>
              <path class="cls-3" d="M40.42,40.74v4.4c-.1-.03-.19-.07-.28-.11v-4.18c.09-.04.19-.08.28-.11Z"/>
              <path class="cls-3" d="M41.09,40.63v4.64c-.1,0-.19,0-.28-.03v-4.58c.09-.02.19-.03.28-.03Z"/>
              <path class="cls-3" d="M41.76,40.71v4.48c-.09.03-.19.05-.28.06v-4.59c.1.01.19.03.28.06Z"/>
              <path class="cls-3" d="M42.43,41.01v3.87c-.09.06-.19.12-.28.16v-4.19c.1.04.19.1.28.16Z"/>
              <path class="cls-3" d="M43.1,41.69v2.51c-.08.13-.17.25-.28.36v-3.23c.11.11.2.23.28.36Z"/>
            </g>
          </g>
          <path class="cls-4" d="M48.11,15.54v35.68h-12.57C39.54,25.55,31.56,9.35,23.61-.01h8.95c8.59,0,15.55,6.97,15.55,15.55Z"/>
        </g>
        <circle class="cls-3" cx="6.47" cy="28.18" r=".77"/>
        <circle class="cls-3" cx="6.47" cy="46.08" r=".77"/>
        <circle class="cls-3" cx="45.8" cy="28.18" r=".77"/>
        <circle class="cls-3" cx="6.47" cy="22.74" r=".77"/>
        <circle class="cls-3" cx="45.8" cy="22.74" r=".77"/>
        <circle class="cls-3" cx="45.8" cy="46.08" r=".77"/>
      </g>
    </g>
  </g>
</svg>